<?xml version="1.0" ?><svg id="Outline" viewBox="0 0 512 512" xmlns="http://www.w3.org/2000/svg"><defs><style>.cls-1{fill:#262626;}</style></defs><path class="cls-1" d="M256.24,72.88a124.63,124.63,0,0,0-124.5,124.49c0,22.34,12,58.16,36.59,109.53,19.78,41.28,43.49,83.5,59.9,111.66a32.42,32.42,0,0,0,56,0c16.4-28.16,40.11-70.39,59.9-111.66,24.62-51.37,36.59-87.19,36.59-109.53A124.63,124.63,0,0,0,256.24,72.88Zm8.41,334.26a9.74,9.74,0,0,1-16.83,0c-59.36-101.87-93.4-178.32-93.4-209.77a101.82,101.82,0,1,1,203.64,0C358.06,228.81,324,305.27,264.65,407.14Z"/><path class="cls-1" d="M255.18,139a66.8,66.8,0,1,0,66.8,66.8A66.87,66.87,0,0,0,255.18,139Zm0,110.92a44.13,44.13,0,1,1,44.12-44.12A44.17,44.17,0,0,1,255.18,249.88Z"/></svg>